# xmcd
#
# Track frame offsets: 
#        150
#        15122
#        32906
#        54473
#        70586
#        87369
#        108550
#        125900
#        153968
#        170702
#        189376
#        206371
#
# Disc length: 2862 seconds
#
# Revision: 0
# Processed by: cddbd v1.5.2PL0 Copyright (c) Steve Scherf et al.
# Submitted via: ExactAudioCopy v0.99pb5
#
DISCID=9a0b2c0c
DTITLE=Eddy Boyle - Blues Harp Joy Ride
DYEAR=2009
DGENRE=Blues
TTITLE0=Straighten Up and Fly Right
TTITLE1=Act Like You Love Me
TTITLE2=Baby Please Come Home
TTITLE3=She Knows What She Got
TTITLE4=Teenage Blues
TTITLE5=51 Ford
TTITLE6=Fool For You
TTITLE7=Hard Times
TTITLE8=Got To Find Me A Woman
TTITLE9=Checking Up On My Baby
TTITLE10=Low Down Blues
TTITLE11=Blues Harp Joy Ride
EXTD=
EXTT0=
EXTT1=
EXTT2=
EXTT3=
EXTT4=
EXTT5=
EXTT6=
EXTT7=
EXTT8=
EXTT9=
EXTT10=
EXTT11=
PLAYORDER=
